<?xml version="1.0" standalone="no"?><!DOCTYPE svg PUBLIC "-//W3C//DTD SVG 1.1//EN" "http://www.w3.org/Graphics/SVG/1.1/DTD/svg11.dtd"><svg t="1528001390256" class="icon" style="" viewBox="0 0 1024 1024" version="1.1" xmlns="http://www.w3.org/2000/svg" p-id="1271" xmlns:xlink="http://www.w3.org/1999/xlink" width="200" height="200"><defs><style type="text/css"></style></defs><path d="M896 384 896 149.333333c0-36.266667-27.733333-64-64-64-36.266667 0-64 27.733333-64 64l0 17.066667L147.2 366.933333C140.8 364.8 134.4 362.666667 128 362.666667L85.333333 362.666667c-23.466667 0-42.666667 19.2-42.666667 42.666667l0 213.333333c0 23.466667 19.2 42.666667 42.666667 42.666667l42.666667 0c6.4 0 12.8-2.133333 19.2-4.266667l100.266667 32-8.533333 25.6c-14.933333 44.8 10.666667 93.866667 55.466667 106.666667l224 70.4c44.8 14.933333 93.866667-10.666667 106.666667-55.466667l8.533333-23.466667 134.4 42.666667L768 874.666667c0 36.266667 27.733333 64 64 64 36.266667 0 64-27.733333 64-64L896 640c46.933333 0 85.333333-38.4 85.333333-85.333333l0-85.333333C981.333333 422.4 942.933333 384 896 384zM128 618.666667 85.333333 618.666667 85.333333 405.333333l42.666667 0L128 618.666667zM584.533333 825.6c-6.4 23.466667-32 34.133333-53.333333 27.733333l-224-70.4c-23.466667-6.4-34.133333-32-27.733333-53.333333l8.533333-25.6 305.066667 98.133333L584.533333 825.6zM768 812.8 170.666667 618.666667c0 0 0 0 0 0L170.666667 405.333333c0 0 0 0 0 0l597.333333-194.133333L768 812.8zM853.333333 874.666667c0 12.8-8.533333 21.333333-21.333333 21.333333-12.8 0-21.333333-8.533333-21.333333-21.333333L810.666667 149.333333c0-12.8 8.533333-21.333333 21.333333-21.333333 12.8 0 21.333333 8.533333 21.333333 21.333333L853.333333 874.666667zM938.666667 554.666667c0 23.466667-19.2 42.666667-42.666667 42.666667l0-170.666667c23.466667 0 42.666667 19.2 42.666667 42.666667L938.666667 554.666667z" p-id="1272" fill="#ffffff"></path></svg>